<svg width="680" height="820" viewBox="0 0 680 820" xmlns="http://www.w3.org/2000/svg" font-family="Arial, Helvetica, sans-serif">

<rect width="680" height="820" fill="#ffffff"/>

<!-- Title -->
<text font-size="15" font-weight="bold" fill="#1a1a1a" x="340" y="28" text-anchor="middle">adk-legal-assistant: system architecture</text>
<text font-size="11" fill="#888888" x="340" y="44" text-anchor="middle">Google ADK 1.28 | Vertex AI Search | Gemini 2.5 Flash | Cloud DLP | FastAPI | Cloud Run</text>

<!-- ENTRY POINTS label -->
<text font-size="10" fill="#aaaaaa" x="340" y="64" text-anchor="middle">ENTRY POINTS</text>

<!-- ADK Web UI -->
<rect x="58" y="70" width="164" height="46" rx="8" fill="#EEEDFE" stroke="#534AB7" stroke-width="1"/>
<text font-size="13" font-weight="bold" fill="#3C3489" x="140" y="90" text-anchor="middle">ADK web UI</text>
<text font-size="10" fill="#534AB7" x="140" y="107" text-anchor="middle">localhost:8000</text>

<!-- FastAPI -->
<rect x="258" y="70" width="164" height="46" rx="8" fill="#EEEDFE" stroke="#534AB7" stroke-width="1"/>
<text font-size="13" font-weight="bold" fill="#3C3489" x="340" y="90" text-anchor="middle">FastAPI</text>
<text font-size="10" fill="#534AB7" x="340" y="107" text-anchor="middle">/review  /research  /draft</text>

<!-- Cloud Run -->
<rect x="458" y="70" width="164" height="46" rx="8" fill="#EEEDFE" stroke="#534AB7" stroke-width="1"/>
<text font-size="13" font-weight="bold" fill="#3C3489" x="540" y="90" text-anchor="middle">Cloud Run</text>
<text font-size="10" fill="#534AB7" x="540" y="107" text-anchor="middle">production container</text>

<!-- Arrows to orchestrator -->
<line x1="140" y1="116" x2="240" y2="168" stroke="#999" stroke-width="1.2" marker-end="url(#arr)"/>
<line x1="340" y1="116" x2="340" y2="168" stroke="#999" stroke-width="1.2" marker-end="url(#arr)"/>
<line x1="540" y1="116" x2="440" y2="168" stroke="#999" stroke-width="1.2" marker-end="url(#arr)"/>

<!-- ORCHESTRATOR label -->
<text font-size="10" fill="#aaaaaa" x="340" y="158" text-anchor="middle">ADK ORCHESTRATOR</text>

<!-- Orchestrator box -->
<rect x="118" y="164" width="444" height="50" rx="8" fill="#E1F5EE" stroke="#0F6E56" stroke-width="1"/>
<text font-size="13" font-weight="bold" fill="#085041" x="340" y="184" text-anchor="middle">legal_orchestrator  (root_agent)</text>
<text font-size="10" fill="#0F6E56" x="340" y="200" text-anchor="middle">routes by intent: review / research / draft  |  sub_agents = [ReviewAgent, DraftAgent, ResearchAgent]</text>

<!-- Arrows to agents -->
<line x1="220" y1="214" x2="148" y2="268" stroke="#999" stroke-width="1.2" marker-end="url(#arr)"/>
<line x1="340" y1="214" x2="340" y2="268" stroke="#999" stroke-width="1.2" marker-end="url(#arr)"/>
<line x1="460" y1="214" x2="532" y2="268" stroke="#999" stroke-width="1.2" marker-end="url(#arr)"/>

<!-- AGENTS label -->
<text font-size="10" fill="#aaaaaa" x="340" y="258" text-anchor="middle">SPECIALIST AGENTS (ADK Agent + FunctionTool)</text>

<!-- review_agent -->
<rect x="38" y="264" width="200" height="56" rx="8" fill="#E6F1FB" stroke="#185FA5" stroke-width="1"/>
<text font-size="13" font-weight="bold" fill="#0C447C" x="138" y="284" text-anchor="middle">review_agent</text>
<text font-size="10" fill="#185FA5" x="138" y="300" text-anchor="middle">tool: analyze_contract()</text>
<text font-size="10" fill="#185FA5" x="138" y="314" text-anchor="middle">returns: ContractRiskReport</text>

<!-- research_agent -->
<rect x="240" y="264" width="200" height="56" rx="8" fill="#E6F1FB" stroke="#185FA5" stroke-width="1"/>
<text font-size="13" font-weight="bold" fill="#0C447C" x="340" y="284" text-anchor="middle">research_agent</text>
<text font-size="10" fill="#185FA5" x="340" y="300" text-anchor="middle">tool: legal_research()</text>
<text font-size="10" fill="#185FA5" x="340" y="314" text-anchor="middle">returns: LegalResearchMemo</text>

<!-- draft_agent -->
<rect x="442" y="264" width="200" height="56" rx="8" fill="#E6F1FB" stroke="#185FA5" stroke-width="1"/>
<text font-size="13" font-weight="bold" fill="#0C447C" x="542" y="284" text-anchor="middle">draft_agent</text>
<text font-size="10" fill="#185FA5" x="542" y="300" text-anchor="middle">tool: draft_document()</text>
<text font-size="10" fill="#185FA5" x="542" y="314" text-anchor="middle">returns: DraftedDocument</text>

<!-- Arrows to DLP -->
<line x1="138" y1="320" x2="220" y2="374" stroke="#999" stroke-width="1.2" marker-end="url(#arr)"/>
<line x1="340" y1="320" x2="340" y2="374" stroke="#999" stroke-width="1.2" marker-end="url(#arr)"/>
<line x1="542" y1="320" x2="460" y2="374" stroke="#999" stroke-width="1.2" marker-end="url(#arr)"/>

<!-- PRIVACY label -->
<text font-size="10" fill="#aaaaaa" x="340" y="364" text-anchor="middle">PRIVACY LAYER</text>

<!-- DLP box -->
<rect x="118" y="370" width="444" height="50" rx="8" fill="#FAECE7" stroke="#993C1D" stroke-width="1"/>
<text font-size="13" font-weight="bold" fill="#712B13" x="340" y="390" text-anchor="middle">Cloud DLP tokenizer</text>
<text font-size="10" fill="#993C1D" x="340" y="406" text-anchor="middle">replaces PII with reversible tokens before every LLM call  |  detokenizes on output  |  ABA Rule 1.6</text>

<!-- Arrows from DLP -->
<line x1="250" y1="420" x2="192" y2="472" stroke="#999" stroke-width="1.2" marker-end="url(#arr)"/>
<line x1="430" y1="420" x2="488" y2="472" stroke="#999" stroke-width="1.2" marker-end="url(#arr)"/>

<!-- RETRIEVAL / GENERATION labels -->
<text font-size="10" fill="#aaaaaa" x="170" y="462" text-anchor="middle">RETRIEVAL</text>
<text font-size="10" fill="#aaaaaa" x="510" y="462" text-anchor="middle">GENERATION</text>

<!-- Vertex AI Search -->
<rect x="38" y="468" width="264" height="56" rx="8" fill="#FAEEDA" stroke="#854F0B" stroke-width="1"/>
<text font-size="13" font-weight="bold" fill="#633806" x="170" y="488" text-anchor="middle">Vertex AI Search</text>
<text font-size="10" fill="#854F0B" x="170" y="504" text-anchor="middle">1,010+ Georgia court opinions (2024-2025)</text>
<text font-size="10" fill="#854F0B" x="170" y="518" text-anchor="middle">datastore: legal-search-shared  |  location: us</text>

<!-- Gemini -->
<rect x="378" y="468" width="264" height="56" rx="8" fill="#EAF3DE" stroke="#3B6D11" stroke-width="1"/>
<text font-size="13" font-weight="bold" fill="#27500A" x="510" y="488" text-anchor="middle">Gemini 2.5 Flash</text>
<text font-size="10" fill="#3B6D11" x="510" y="504" text-anchor="middle">clause analysis  |  risk rating  |  drafting</text>
<text font-size="10" fill="#3B6D11" x="510" y="518" text-anchor="middle">Google AI Studio API  |  GOOGLE_GENAI_USE_VERTEXAI=false</text>

<!-- Context arrow -->
<line x1="302" y1="496" x2="376" y2="496" stroke="#999" stroke-width="1.2" marker-end="url(#arr)"/>
<text font-size="9" fill="#888888" x="339" y="490" text-anchor="middle">grounded context</text>

<!-- GCS arrow -->
<line x1="170" y1="524" x2="170" y2="572" stroke="#999" stroke-width="1.2" marker-end="url(#arr)"/>

<!-- STORAGE label -->
<text font-size="10" fill="#aaaaaa" x="170" y="562" text-anchor="middle">STORAGE</text>

<!-- GCS box -->
<rect x="38" y="568" width="264" height="50" rx="8" fill="#F1EFE8" stroke="#5F5E5A" stroke-width="1"/>
<text font-size="13" font-weight="bold" fill="#444441" x="170" y="588" text-anchor="middle">Cloud Storage (GCS)</text>
<text font-size="10" fill="#5F5E5A" x="170" y="604" text-anchor="middle">legal-adk-corpus-raw  |  legal-adk-corpus-processed</text>

<!-- GCS to ingestion -->
<line x1="170" y1="618" x2="170" y2="664" stroke="#999" stroke-width="1.2" marker-end="url(#arr)"/>

<!-- INGESTION label -->
<text font-size="10" fill="#aaaaaa" x="170" y="654" text-anchor="middle">INGESTION PIPELINE</text>

<!-- CourtListener -->
<rect x="38" y="660" width="264" height="56" rx="8" fill="#F1EFE8" stroke="#5F5E5A" stroke-width="1"/>
<text font-size="13" font-weight="bold" fill="#444441" x="170" y="680" text-anchor="middle">CourtListener REST API</text>
<text font-size="10" fill="#5F5E5A" x="170" y="696" text-anchor="middle">9M+ opinions  |  471 jurisdictions  |  free token</text>
<text font-size="10" fill="#5F5E5A" x="170" y="710" text-anchor="middle">nightly sync via Cloud Scheduler + Cloud Run Job</text>

<!-- Secret Manager -->
<rect x="378" y="660" width="264" height="56" rx="8" fill="#F1EFE8" stroke="#5F5E5A" stroke-width="1"/>
<text font-size="13" font-weight="bold" fill="#444441" x="510" y="680" text-anchor="middle">Secret Manager</text>
<text font-size="10" fill="#5F5E5A" x="510" y="696" text-anchor="middle">courtlistener-token  |  API keys</text>
<text font-size="10" fill="#5F5E5A" x="510" y="710" text-anchor="middle">project: legal-adk  |  location: us-central1</text>

<!-- Secrets dashed arrow up to agents -->
<line x1="510" y1="660" x2="510" y2="524" stroke="#aaaaaa" stroke-width="1" stroke-dasharray="5 3" marker-end="url(#arr)"/>

<!-- Legend -->
<rect x="38" y="738" width="604" height="28" rx="6" fill="none" stroke="#dddddd" stroke-width="0.8"/>
<rect x="50" y="746" width="11" height="11" rx="2" fill="#EEEDFE" stroke="#534AB7" stroke-width="0.8"/>
<text font-size="10" fill="#666" x="67" y="755">entry</text>
<rect x="102" y="746" width="11" height="11" rx="2" fill="#E1F5EE" stroke="#0F6E56" stroke-width="0.8"/>
<text font-size="10" fill="#666" x="119" y="755">orchestrator</text>
<rect x="186" y="746" width="11" height="11" rx="2" fill="#E6F1FB" stroke="#185FA5" stroke-width="0.8"/>
<text font-size="10" fill="#666" x="203" y="755">agents</text>
<rect x="244" y="746" width="11" height="11" rx="2" fill="#FAECE7" stroke="#993C1D" stroke-width="0.8"/>
<text font-size="10" fill="#666" x="261" y="755">privacy (DLP)</text>
<rect x="340" y="746" width="11" height="11" rx="2" fill="#FAEEDA" stroke="#854F0B" stroke-width="0.8"/>
<text font-size="10" fill="#666" x="357" y="755">retrieval</text>
<rect x="408" y="746" width="11" height="11" rx="2" fill="#EAF3DE" stroke="#3B6D11" stroke-width="0.8"/>
<text font-size="10" fill="#666" x="425" y="755">generation</text>
<rect x="488" y="746" width="11" height="11" rx="2" fill="#F1EFE8" stroke="#5F5E5A" stroke-width="0.8"/>
<text font-size="10" fill="#666" x="505" y="755">storage / infra</text>

<!-- Footer -->
<text font-size="9" fill="#bbbbbb" x="340" y="790" text-anchor="middle">github.com/gbhorne/legal-adk-gcp  |  project: legal-adk  |  region: us-central1</text>

<!-- Arrow marker -->
<defs>
<marker id="arr" viewBox="0 0 10 10" refX="8" refY="5" markerWidth="6" markerHeight="6" orient="auto-start-reverse">
<path d="M2 1L8 5L2 9" fill="none" stroke="#999999" stroke-width="1.5" stroke-linecap="round" stroke-linejoin="round"/>
</marker>
</defs>

</svg>
